# xmcd CD database file
#
# Track frame offsets:
#	150
#	15335
#	28021
#	41321
#	55805
#	69398
#	80153
#	93836
#	107450
#	122314
#	129201
#	142540
#	156782
#	171324
#
# Disc length: 2470 seconds
#
# Revision: 2
# Processed by: cddbd v1.5.2PL0 Copyright (c) Steve Scherf et al.
# Submitted via: CDex 2.16
#
DISCID=9b09a40e
DTITLE=Various Artist - Days All Days VOL - 3
DYEAR=1900
DGENRE=Blues
TTITLE0=Frank Sinatra/Night And Day
TTITLE1=Bing Crosby - Lullaby
TTITLE2=Nat King Cole /It's Only A Papermoon
TTITLE3=Dinah Washington/ I Want To Cry
TTITLE4=Peggy Lee - I'll Dance On Our Wedding
TTITLE5=Melt Tome /How High The Moon
TTITLE6=Dinah Shore/ I Can't Begin To TellYou
TTITLE7=Peggy Lee /Golden Earrings
TTITLE8=Billy Holiday /Embraceable You
TTITLE9=Xavier Cugart and  His Orchetra - The Continental
TTITLE10=Ray Charles /Don't Put All Your Dreams InOne Basket
TTITLE11=Andrews Sisters/Bei Mir Bist Du SChon
TTITLE12=Melt Tome - Again
TTITLE13=Benny Goodman - After Hours
EXTD=
EXTT0=
EXTT1=
EXTT2=
EXTT3=
EXTT4=
EXTT5=
EXTT6=
EXTT7=
EXTT8=
EXTT9=
EXTT10=
EXTT11=
EXTT12=
EXTT13=
PLAYORDER=
